<svg width="120" height="36" viewBox="0 0 120 36" fill="none" xmlns="http://www.w3.org/2000/svg">
<g clip-path="url(#clip0_3061_5381)">
<path d="M67.296 27.0806V9.56057H71.232V27.0806H67.296ZM55.968 27.0806V9.56057H59.904V27.0806H55.968ZM59.208 20.0006V16.5446H67.992V20.0006H59.208ZM79.1473 27.4886C77.6273 27.4886 76.4593 27.0006 75.6433 26.0246C74.8273 25.0326 74.4193 23.5446 74.4193 21.5606V13.9286H78.2593V21.7526C78.2593 22.4566 78.4593 23.0166 78.8593 23.4326C79.2593 23.8486 79.7953 24.0566 80.4673 24.0566C81.1553 24.0566 81.7153 23.8406 82.1473 23.4086C82.5793 22.9766 82.7953 22.3926 82.7953 21.6566V13.9286H86.6353V27.0806H83.5873V21.5366H83.8513C83.8513 22.8646 83.6753 23.9766 83.3233 24.8726C82.9873 25.7526 82.4833 26.4086 81.8113 26.8406C81.1393 27.2726 80.3073 27.4886 79.3153 27.4886H79.1473ZM90.2001 27.0806V13.6646C90.2001 12.1446 90.6241 11.0166 91.4721 10.2806C92.3361 9.54457 93.6081 9.17657 95.2881 9.17657H96.5841V12.0566H95.1201C94.6881 12.0566 94.3521 12.1766 94.1121 12.4166C93.8881 12.6566 93.7761 12.9926 93.7761 13.4246V27.0806H90.2001ZM88.6641 16.8566V14.0486H96.5361V16.8566H88.6641ZM99.1281 27.0806V13.9286H102.968V27.0806H99.1281ZM97.5681 16.7606V13.9286H102.968V16.7606H97.5681ZM100.616 12.6326C99.8961 12.6326 99.3601 12.4486 99.0081 12.0806C98.6721 11.6966 98.5041 11.2166 98.5041 10.6406C98.5041 10.0486 98.6721 9.56856 99.0081 9.20056C99.3601 8.81657 99.8961 8.62457 100.616 8.62457C101.352 8.62457 101.888 8.81657 102.224 9.20056C102.56 9.56856 102.728 10.0486 102.728 10.6406C102.728 11.2166 102.56 11.6966 102.224 12.0806C101.888 12.4486 101.352 12.6326 100.616 12.6326ZM112.314 27.5366C111.194 27.5366 110.202 27.3446 109.338 26.9606C108.49 26.5766 107.778 26.0646 107.202 25.4246C106.642 24.7686 106.21 24.0406 105.906 23.2406C105.618 22.4246 105.474 21.5926 105.474 20.7446V20.2646C105.474 19.3846 105.618 18.5446 105.906 17.7446C106.21 16.9286 106.642 16.2006 107.202 15.5606C107.762 14.9206 108.458 14.4166 109.29 14.0486C110.138 13.6646 111.098 13.4726 112.17 13.4726C113.578 13.4726 114.762 13.7926 115.722 14.4326C116.698 15.0566 117.442 15.8806 117.954 16.9046C118.466 17.9126 118.722 19.0166 118.722 20.2166V21.5126H107.082V19.3286H116.394L115.146 20.3366C115.146 19.5526 115.034 18.8806 114.81 18.3206C114.586 17.7606 114.25 17.3366 113.802 17.0486C113.37 16.7446 112.826 16.5926 112.17 16.5926C111.498 16.5926 110.93 16.7446 110.466 17.0486C110.002 17.3526 109.65 17.8006 109.41 18.3926C109.17 18.9686 109.05 19.6806 109.05 20.5286C109.05 21.3126 109.162 22.0006 109.386 22.5926C109.61 23.1686 109.962 23.6166 110.442 23.9366C110.922 24.2566 111.546 24.4166 112.314 24.4166C113.018 24.4166 113.594 24.2806 114.042 24.0086C114.49 23.7366 114.794 23.4006 114.954 23.0006H118.482C118.29 23.8806 117.914 24.6646 117.354 25.3526C116.794 26.0406 116.09 26.5766 115.242 26.9606C114.394 27.3446 113.418 27.5366 112.314 27.5366Z" fill="#F6F7FB"/>
<rect x="0.638672" width="9.80223" height="36" rx="4.90111" fill="#5DB082"/>
<rect x="17.6445" width="9.80223" height="36" rx="4.90111" fill="#5DB082"/>
<rect width="9.98687" height="36.7641" rx="4.99344" transform="matrix(0.254034 0.967195 -0.96461 0.263681 35.4629 7.83984)" fill="#5DB082"/>
<ellipse cx="38" cy="31.6256" rx="4" ry="4.08071" fill="#5DB082"/>
</g>
<defs>
<clipPath id="clip0_3061_5381">
<rect width="120" height="36" fill="white"/>
</clipPath>
</defs>
</svg>
