<svg width="24" height="24" viewBox="0 0 24 24" fill="none" xmlns="http://www.w3.org/2000/svg">
<path d="M11.29 6.29006C11.1963 6.38302 11.1219 6.49362 11.0711 6.61548C11.0203 6.73734 10.9942 6.86805 10.9942 7.00006C10.9942 7.13207 11.0203 7.26278 11.0711 7.38464C11.1219 7.5065 11.1963 7.61709 11.29 7.71006L14.59 11.0001L7 11.0001C6.73478 11.0001 6.48043 11.1054 6.29289 11.293C6.10536 11.4805 6 11.7348 6 12.0001C6 12.2653 6.10536 12.5196 6.29289 12.7072C6.48043 12.8947 6.73478 13.0001 7 13.0001L14.59 13.0001L11.29 16.2901C11.1017 16.4784 10.9959 16.7338 10.9959 17.0001C10.9959 17.2664 11.1017 17.5218 11.29 17.7101C11.4783 17.8984 11.7337 18.0042 12 18.0042C12.2663 18.0042 12.5217 17.8984 12.71 17.7101L17.71 12.7101C17.801 12.615 17.8724 12.5028 17.92 12.3801C17.9729 12.2604 18.0002 12.1309 18.0002 12.0001C18.0002 11.8692 17.9729 11.7398 17.92 11.6201C17.8724 11.4973 17.801 11.3852 17.71 11.2901L12.71 6.29006C12.617 6.19633 12.5064 6.12194 12.3846 6.07117C12.2627 6.0204 12.132 5.99426 12 5.99426C11.868 5.99426 11.7373 6.0204 11.6154 6.07117C11.4936 6.12194 11.383 6.19633 11.29 6.29006Z" fill="white"/>
</svg>
